<?xml version="1.0" standalone="no"?>
<!DOCTYPE svg PUBLIC "-//W3C//DTD SVG 20010904//EN"
 "http://www.w3.org/TR/2001/REC-SVG-20010904/DTD/svg10.dtd">
<svg version="1.0" xmlns="http://www.w3.org/2000/svg"
 width="2880.000000pt" height="1800.000000pt" viewBox="0 0 2880.000000 1800.000000"
 preserveAspectRatio="xMidYMid meet">

<g transform="translate(0.000000,1800.000000) scale(0.100000,-0.100000)"
fill="#000000" stroke="none">
<path d="M6685 12734 c-770 -62 -1434 -288 -2042 -695 -265 -177 -590 -468
-805 -719 -467 -546 -777 -1235 -877 -1950 -44 -308 -44 -723 0 -1040 115
-843 543 -1665 1174 -2256 l107 -101 -182 -204 c-187 -208 -312 -348 -550
-614 -73 -82 -184 -206 -245 -275 -433 -483 -594 -663 -766 -856 -431 -482
-580 -648 -768 -858 -108 -120 -241 -269 -296 -331 -55 -61 -172 -192 -260
-290 -88 -99 -221 -247 -295 -330 -74 -83 -188 -210 -252 -283 -65 -72 -118
-137 -118 -144 0 -19 78 -154 136 -235 114 -159 320 -325 504 -404 49 -21 100
-41 113 -44 25 -7 5 -28 602 640 50 55 241 269 425 475 184 205 355 396 380
424 25 28 216 242 425 475 209 234 400 447 425 475 25 28 214 240 421 471 207
231 418 467 469 525 52 58 149 166 215 240 66 74 203 227 304 340 101 113 189
206 195 208 7 1 52 -16 101 -39 590 -272 1243 -398 1914 -368 582 27 1115 163
1636 419 411 202 729 432 1077 780 l207 208 83 11 c309 45 578 174 752 362 96
103 97 50 -10 514 l-95 410 17 73 c10 40 21 75 26 78 14 9 47 -16 63 -46 28
-53 217 -900 212 -947 -8 -75 -145 -232 -289 -330 -38 -26 -65 -50 -61 -54 34
-33 436 -36 623 -4 264 44 492 140 635 268 l55 49 0 130 0 130 -51 120 c-135
322 -302 766 -325 866 -24 104 10 162 95 162 27 0 32 -5 49 -52 328 -872 393
-1026 497 -1183 231 -348 535 -515 934 -515 448 0 757 175 935 528 71 142 132
362 154 560 l8 73 -360 352 c-600 586 -659 641 -753 704 -90 60 -205 109 -317
134 -32 7 -60 18 -63 25 -9 25 18 93 47 118 64 53 197 40 358 -34 l90 -42 75
55 c353 262 628 607 745 937 54 153 67 237 66 420 -1 144 -4 177 -27 262 -31
116 -97 249 -168 336 -113 139 -320 267 -514 318 -81 21 -131 27 -265 31 -254
8 -417 -20 -586 -102 l-91 -44 -339 -786 -338 -786 -30 7 c-43 9 -64 24 -77
56 -25 61 11 169 184 552 l90 200 -6 150 c-3 90 -12 175 -21 211 -50 187 -175
335 -358 424 -196 96 -418 132 -699 112 -257 -18 -427 -55 -602 -132 -51 -22
-97 -41 -103 -42 -6 -1 -39 36 -74 83 -227 307 -518 600 -825 829 -577 431
-1239 693 -1995 786 -120 15 -613 28 -725 19z m1170 -921 c128 -41 284 -102
360 -141 l54 -27 -157 -38 -157 -38 32 -132 c18 -73 33 -142 33 -153 0 -12 8
-25 17 -28 17 -7 35 12 29 30 -2 6 2 11 10 11 8 0 14 -9 14 -19 0 -10 7 -18
16 -18 14 0 14 2 3 16 -11 14 -10 15 7 12 13 -2 19 2 18 14 -1 10 2 15 7 13
13 -8 27 57 17 78 -5 11 -5 17 2 17 10 0 14 -19 11 -50 -2 -13 -1 -13 8 0 5 8
8 17 5 21 -2 4 4 13 13 20 12 10 14 10 9 2 -4 -8 -2 -13 5 -13 6 0 9 8 6 19
-3 15 0 18 17 14 19 -4 19 -3 5 9 -16 13 -23 51 -7 42 5 -3 6 -9 3 -14 -6 -10
21 -7 32 3 15 16 13 47 -4 47 -14 0 -15 2 -4 13 10 8 15 9 18 1 2 -6 11 -20
19 -30 9 -10 13 -14 10 -8 -3 6 1 23 9 38 13 24 12 29 -7 48 -17 17 -18 20 -4
15 11 -4 19 -1 23 9 5 13 7 13 14 2 5 -7 12 -13 16 -13 32 -2 277 -152 387
-237 28 -22 76 -58 106 -81 84 -62 368 -350 452 -457 360 -459 578 -972 655
-1540 24 -177 24 -655 0 -828 -49 -347 -165 -721 -322 -1031 -42 -85 -192
-325 -261 -418 -228 -308 -538 -587 -898 -808 -674 -412 -1530 -531 -2306
-320 -238 65 -476 161 -650 262 -291 168 -480 311 -685 518 -131 132 -155 157
-210 230 -41 54 -51 70 -37 61 7 -4 12 -2 12 4 0 6 11 15 25 22 19 8 22 15 15
28 -8 15 -6 17 10 13 13 -4 20 0 20 10 0 8 7 17 15 21 16 6 21 36 5 36 -5 0
-7 -7 -4 -15 4 -9 0 -15 -9 -15 -8 0 -17 -5 -19 -12 -3 -8 -7 -6 -11 5 -3 9
-3 16 1 16 4 -1 13 -1 21 0 12 1 11 4 -3 14 -16 12 -16 13 6 12 12 0 28 -3 34
-7 6 -4 19 1 29 12 10 11 13 20 7 20 -6 0 -13 -6 -15 -12 -4 -8 -8 -4 -12 9
-4 13 -12 20 -18 16 -6 -3 -7 -1 -3 6 6 9 11 9 22 0 12 -10 13 -8 8 7 -5 18
-5 18 11 -1 10 -13 18 -16 23 -9 4 6 15 13 25 17 9 3 17 12 17 18 0 9 -3 9
-14 0 -11 -9 -15 -9 -19 1 -4 10 -8 10 -16 -2 -15 -21 -13 0 3 29 8 15 16 20
20 12 4 -6 2 -11 -5 -11 -16 0 -5 -11 13 -14 7 -1 20 -6 28 -11 11 -7 10 -2
-3 18 -10 16 -16 34 -13 40 2 7 5 4 5 -6 1 -10 7 -17 14 -14 6 2 12 11 11 19
-1 10 9 14 32 13 26 0 31 2 22 12 -6 7 -14 11 -18 8 -5 -3 -12 0 -16 6 -4 8
-3 9 4 5 7 -4 12 -2 12 4 0 6 4 9 9 6 5 -3 12 1 15 10 3 9 11 12 18 8 7 -4 4
2 -6 14 -19 22 -19 22 1 22 12 0 23 7 27 15 3 10 14 14 30 11 19 -3 23 -1 19
15 -3 11 0 19 6 19 7 0 10 4 6 9 -3 5 4 13 16 16 33 11 16 16 -19 5 -20 -5
-30 -5 -27 1 4 5 1 9 -5 9 -6 0 -8 5 -4 12 6 9 9 9 12 0 6 -19 30 -14 42 8 6
11 16 18 22 14 16 -10 28 18 16 39 -5 10 -12 16 -15 13 -3 -3 0 -14 8 -23 13
-16 12 -17 -3 -4 -15 11 -18 11 -18 0 -1 -9 -4 -8 -11 4 -6 10 -8 21 -5 24 3
4 6 1 6 -6 0 -7 9 -3 20 10 12 14 19 18 18 9 -2 -9 6 -15 20 -16 13 -1 22 4
22 13 0 8 5 11 13 7 7 -4 7 -2 -2 7 -10 11 -15 11 -18 1 -3 -6 -9 -10 -14 -7
-5 4 -3 12 4 19 9 10 17 11 32 3 18 -9 18 -8 7 5 -9 11 -10 18 -2 23 5 3 10 1
10 -5 0 -6 5 -8 10 -5 16 10 5 61 -11 57 -8 -2 -10 0 -6 4 11 11 38 14 31 3
-3 -5 1 -9 8 -9 9 0 9 -3 -2 -10 -12 -7 -8 -10 15 -10 19 0 25 3 17 8 -13 9
-6 42 9 42 4 0 6 8 3 18 -5 14 -3 14 12 -3 14 -17 16 -17 11 -2 -4 11 -1 17
10 17 13 0 14 2 2 17 -12 15 -12 16 5 10 15 -6 18 -3 14 18 -4 20 -3 23 8 14
11 -9 14 -8 14 5 0 16 15 22 23 9 2 -5 2 -2 1 5 -4 13 24 46 47 55 12 5 12 7
0 15 -9 7 -10 12 -2 16 15 10 14 29 -1 20 -10 -5 -10 -3 0 7 11 12 14 12 22
-1 8 -13 10 -13 10 2 0 26 -19 32 -42 11 -19 -16 -19 -14 2 15 21 29 40 46 26
23 -3 -4 4 -17 16 -27 19 -17 21 -17 15 -1 -5 13 -1 17 21 17 19 0 23 3 14 9
-11 6 -10 10 3 15 15 5 15 9 4 23 -8 10 -9 14 -2 10 14 -9 27 9 17 24 -4 8 -9
7 -16 -2 -8 -11 -9 -10 -5 3 3 9 1 19 -6 22 -9 3 -9 5 0 5 6 1 20 -10 30 -23
21 -26 36 -18 41 23 3 16 0 21 -9 16 -8 -5 -10 -4 -5 3 5 9 13 9 29 0 19 -10
20 -9 9 4 -10 13 -9 15 5 15 46 0 58 3 45 12 -8 4 -13 11 -13 15 4 30 -1 38
-20 33 -17 -4 -18 -3 -8 9 9 11 15 12 25 3 10 -8 14 -8 14 -1 0 6 9 9 20 7 16
-3 18 -1 11 13 -7 14 -8 48 -2 72 0 3 11 11 24 19 20 13 21 13 9 -2 -16 -18 3
-36 21 -18 7 7 14 7 24 -1 12 -9 13 -7 8 15 -5 18 -3 27 5 27 6 0 8 5 3 13 -4
6 -8 22 -9 34 -1 18 2 19 17 10 16 -10 16 -12 1 -25 -9 -7 -11 -11 -4 -7 6 3
12 1 12 -6 0 -7 9 -2 20 11 21 24 27 46 11 35 -5 -3 -13 0 -17 6 -4 7 -3 9 3
6 13 -8 21 9 19 45 -1 19 2 24 10 18 16 -14 51 14 39 32 -6 8 -3 6 6 -4 23
-24 31 -11 12 18 -10 16 -11 24 -4 24 7 0 9 4 6 10 -3 6 1 7 10 4 12 -5 13 -9
3 -21 -9 -11 -9 -16 3 -24 22 -14 26 -11 24 21 -1 17 3 34 8 37 6 3 7 1 3 -5
-8 -14 13 -16 32 -3 11 6 10 10 -4 15 -16 6 -15 8 2 28 11 12 13 18 5 13 -10
-6 -12 -4 -7 4 5 7 14 10 22 7 8 -3 14 -1 14 4 0 5 6 8 13 6 6 -1 9 -1 5 1 -5
3 -8 11 -8 18 0 9 -8 12 -20 10 -11 -2 -18 0 -15 6 4 5 13 9 21 9 8 0 12 5 9
10 -3 6 -2 10 4 10 6 0 8 6 5 14 -3 8 0 17 7 22 8 4 10 3 5 -5 -9 -14 12 -43
25 -35 5 3 9 0 9 -7 0 -7 3 -10 6 -6 3 3 -1 16 -10 29 -9 12 -16 32 -16 43 1
16 4 14 15 -10 8 -18 14 -24 14 -13 1 11 8 16 19 13 10 -2 25 1 33 5 11 7 10
10 -4 16 -9 3 -15 10 -12 14 3 5 -3 13 -12 19 -11 6 -13 11 -5 11 7 0 10 5 6
12 -4 7 -3 8 4 4 7 -4 12 -1 12 6 0 7 8 1 17 -13 l16 -26 25 24 c14 13 22 26
19 30 -4 3 -7 0 -7 -7 0 -7 -2 -11 -5 -8 -9 8 6 38 16 32 5 -3 9 0 9 6 0 6 5
8 12 4 8 -5 9 -2 3 12 -4 10 -7 27 -7 37 0 10 -4 15 -10 11 -7 -4 -8 -2 -4 4
4 7 14 12 22 12 8 0 13 4 10 9 -3 5 5 8 19 7 14 0 25 -7 25 -15 0 -7 -6 -11
-14 -8 -10 4 -13 1 -9 -9 3 -7 0 -14 -6 -14 -6 0 -11 6 -11 13 0 8 -3 7 -10
-3 -7 -11 -5 -17 8 -21 12 -4 24 4 40 25 12 17 33 36 45 43 17 10 18 12 5 13
-9 0 -20 -5 -23 -11 -5 -7 -14 -4 -26 7 -19 17 -20 17 -13 -1 5 -13 4 -16 -4
-11 -18 11 -15 36 4 36 10 0 14 6 11 14 -3 8 2 16 14 19 10 3 17 1 14 -3 -3
-5 -2 -10 2 -13 5 -2 3 -3 -4 -1 -14 3 -25 -34 -12 -42 5 -3 9 2 9 10 0 10 9
16 24 16 23 0 40 27 36 59 -1 7 3 10 9 6 6 -3 11 1 11 10 0 10 5 14 13 10 6
-4 2 2 -10 12 -20 16 -21 20 -8 43 16 29 20 19 5 -11 -7 -13 -7 -19 0 -19 5 0
10 5 10 11 0 6 7 9 15 5 8 -3 18 2 23 10 5 9 12 16 15 15 4 0 14 2 24 6 15 6
15 7 -3 14 -10 3 -25 2 -31 -3 -9 -8 -13 -6 -13 6 0 9 0 19 0 24 0 4 13 7 30
8 16 1 27 -3 24 -7 -2 -4 9 -1 26 7 16 9 30 18 30 20 0 3 -4 3 -9 0 -5 -3 -12
1 -15 10 -6 15 -9 15 -34 -1 l-27 -16 23 20 c22 19 31 38 12 26 -6 -3 -7 1 -4
10 8 19 28 15 30 -6 2 -30 6 -33 13 -9 6 20 13 25 39 24 18 0 30 1 28 3 -2 3
-8 5 -13 5 -4 0 -16 4 -25 9 -11 6 -18 5 -20 -3 -3 -9 -6 -9 -12 0 -5 8 3 14
23 18 21 5 28 11 24 23 -4 13 -3 14 5 1 6 -8 8 -18 6 -22 -3 -4 0 -8 5 -8 6 0
11 7 11 15 0 8 7 15 16 15 14 0 15 2 3 17 -10 12 -10 15 -1 9 7 -4 12 -4 11 1
-4 22 3 33 19 34 14 0 14 2 -3 9 -18 8 -18 10 3 14 4 1 16 7 26 13 18 10 18
12 4 26 -9 9 -19 13 -22 9 -4 -3 -4 2 0 11 6 17 8 16 21 -3 18 -26 40 -26 48
1 5 16 10 18 20 9 12 -10 13 -8 10 10 -2 12 2 23 10 27 8 3 15 13 15 22 1 15
2 15 13 0 10 -14 14 -14 25 -3 8 9 9 14 2 15 -5 1 -14 3 -20 4 -5 1 -15 3 -22
4 -6 0 -3 7 8 15 14 11 21 11 26 3 6 -9 8 -8 8 1 0 7 4 11 8 8 5 -3 8 8 7 25
-2 25 2 30 16 26 12 -3 16 0 12 10 -3 8 -13 12 -22 8 -9 -3 -5 3 8 14 18 14
20 20 10 23 -8 3 -1 5 15 5 19 0 36 9 48 24 34 45 40 50 53 45 9 -3 12 2 10
14 -2 11 0 22 6 25 15 10 10 21 -13 33 -22 10 -22 11 5 9 15 -1 27 -5 27 -10
0 -5 7 -4 15 3 12 10 13 16 3 28 -9 11 -9 14 -1 9 7 -5 14 1 19 15 6 19 8 20
18 6 8 -11 17 -14 27 -7 8 5 9 9 2 9 -19 0 -2 41 21 52 26 11 31 42 8 60 -13
11 -15 11 -9 -4 3 -10 2 -20 -2 -22 -5 -3 -7 5 -6 17 3 31 3 31 20 17 16 -13
39 -4 29 12 -5 7 -2 8 5 3 9 -5 10 -10 2 -18 -6 -6 -11 -15 -11 -20 0 -5 7 -2
15 7 8 8 15 19 15 25 0 6 5 11 10 11 6 0 3 11 -6 25 -9 14 -14 29 -10 32 4 4
9 -2 12 -14 7 -24 30 -38 32 -20 0 7 2 21 4 31 2 10 -4 21 -12 23 -12 4 -12 3
-2 -5 10 -6 2 -9 -25 -9 -22 0 -50 -6 -64 -13 -13 -8 -33 -15 -44 -16 -11 -1
-261 -77 -556 -168 -295 -91 -540 -166 -543 -166 -13 0 -36 70 -36 110 0 51
22 86 69 109 20 10 344 114 721 231 377 117 688 218 691 223 4 5 11 7 17 3 6
-3 14 -1 18 5 4 7 3 9 -3 6 -5 -3 -10 0 -10 7 0 8 6 12 14 9 7 -3 13 0 13 6 0
6 -5 11 -12 11 -6 0 -9 2 -6 5 3 3 15 2 28 -3 20 -7 21 -10 7 -15 -10 -4 -17
-12 -17 -18 0 -8 4 -9 13 0 8 6 16 9 19 6 2 -3 11 6 18 20 7 14 17 25 22 25 4
0 8 5 8 11 0 6 -6 9 -13 6 -8 -3 -12 4 -11 22 1 14 3 28 4 31 1 3 2 10 1 15
-1 6 4 3 11 -5 7 -8 21 -16 31 -16 17 -2 21 6 18 39 -2 12 5 17 21 17 21 -1
21 -2 5 -11 -9 -6 -15 -15 -11 -21 4 -5 14 1 23 16 10 14 20 23 24 20 3 -4 5
3 2 15 -2 11 1 21 7 21 6 0 5 7 -3 17 -13 15 -12 15 7 5 27 -14 35 -6 28 27
-5 21 -3 23 6 11 10 -13 11 -11 7 7 -3 15 -1 20 9 16 8 -3 11 -9 8 -14 -3 -5
0 -9 5 -9 6 0 11 7 11 15 0 8 -5 15 -11 15 -5 0 -7 5 -4 10 5 8 11 8 19 1 17
-15 26 -4 26 33 0 24 3 27 10 16 8 -13 10 -12 10 3 0 10 4 15 10 12 6 -3 7 1
4 9 -4 11 0 16 15 16 12 0 21 4 21 8 0 13 -51 6 -61 -9 -5 -8 -9 -9 -9 -4 0
18 21 34 36 28 10 -4 12 0 7 13 -6 17 -5 17 10 5 14 -11 17 -11 17 0 0 11 2
11 10 -1 8 -13 10 -12 10 4 0 12 5 16 15 13 19 -8 30 12 16 26 -9 9 -11 7 -5
-8 6 -18 4 -17 -10 3 -10 12 -21 22 -26 22 -4 0 -6 -10 -4 -22 4 -22 4 -22 -6
1 -9 20 -6 27 16 48 21 19 25 21 20 6 -4 -10 -8 -22 -9 -27 -3 -13 47 -15 55
-2 12 17 9 24 -8 22 -9 0 -19 6 -22 14 -4 13 -3 13 11 2 13 -11 17 -10 27 9
10 18 10 21 -2 17 -9 -4 -14 1 -14 13 0 15 3 16 16 5 35 -30 42 -29 26 2 -20
39 -20 48 -1 32 8 -7 13 -16 10 -20 -3 -4 3 -14 13 -21 15 -13 16 -12 3 4 -10
13 -11 17 -1 17 9 0 7 7 -6 21 -19 22 -19 22 3 11 12 -7 24 -17 26 -24 3 -7 4
43 2 112 -4 205 -62 431 -166 649 -27 57 -49 106 -49 108 0 8 60 -7 175 -44z
m30 -762 c-3 -12 -10 -21 -15 -21 -4 0 -3 11 3 24 14 29 22 27 12 -3z m-240
-310 c-3 -6 -11 -8 -17 -5 -6 4 -5 9 3 15 16 10 23 4 14 -10z m-95 -27 c0 -8
-19 -13 -24 -6 -3 5 1 9 9 9 8 0 15 -2 15 -3z m100 -9 c0 -8 -2 -15 -4 -15 -2
0 -6 7 -10 15 -3 8 -1 15 4 15 6 0 10 -7 10 -15z m-43 -1 c-3 -3 -12 -4 -19
-1 -8 3 -5 6 6 6 11 1 17 -2 13 -5z m-32 -34 c-3 -5 -12 -10 -18 -10 -7 0 -6
4 3 10 19 12 23 12 15 0z m-9 -42 l19 -21 -27 18 c-29 18 -34 25 -20 25 5 0
17 -10 28 -22z m-39 -37 c2 -14 -1 -21 -9 -19 -6 2 -12 14 -13 26 -2 29 17 23
22 -7z m-80 -3 c-3 -8 -6 -5 -6 6 -1 11 2 17 5 13 3 -3 4 -12 1 -19z m43 -18
c0 -5 -5 -10 -11 -10 -5 0 -7 5 -4 10 3 6 8 10 11 10 2 0 4 -4 4 -10z m-86
-115 c-4 -8 -8 -15 -10 -15 -2 0 -4 7 -4 15 0 8 4 15 10 15 5 0 7 -7 4 -15z
m-514 -549 c0 -2 -8 -10 -17 -17 -16 -13 -17 -12 -4 4 13 16 21 21 21 13z
m-20 -40 c0 -2 -8 -10 -17 -17 -16 -13 -17 -12 -4 4 13 16 21 21 21 13z m54
-5 c3 -5 -1 -11 -9 -14 -9 -4 -12 -1 -8 9 6 16 10 17 17 5z m-100 -119 c3 -5
-1 -9 -9 -9 -8 0 -15 4 -15 9 0 4 4 8 9 8 6 0 12 -4 15 -8z m40 -1 c3 -5 -1
-11 -9 -15 -9 -3 -15 0 -15 9 0 16 16 20 24 6z m-151 -162 c3 -12 3 -18 0 -15
-3 3 -13 -2 -21 -11 -11 -10 -17 -12 -20 -4 -2 6 -9 8 -14 5 -7 -4 -8 -2 -4 5
4 6 11 9 16 6 5 -3 15 3 22 15 16 25 14 25 21 -1z m-78 -94 c0 -11 -10 -34
-22 -50 -21 -29 -28 -16 -8 15 13 20 13 32 2 47 -6 8 -3 11 10 10 12 0 19 -8
18 -22z m-110 -105 c-3 -5 -12 -10 -18 -10 -7 0 -6 4 3 10 19 12 23 12 15 0z
m-15 -37 c-1 -18 -27 -39 -50 -40 -18 -2 -21 0 -10 7 8 5 17 7 21 4 4 -2 10 5
14 16 6 19 25 29 25 13z m-251 -312 c11 -7 9 -10 -8 -16 -21 -6 -21 -8 -5 -19
13 -10 14 -15 4 -21 -8 -5 -11 -4 -7 2 4 6 0 14 -9 17 -12 5 -14 10 -5 20 6 7
8 16 4 19 -9 10 10 8 26 -2z m-168 -214 c-10 -9 -11 -8 -5 6 3 10 9 15 12 12
3 -3 0 -11 -7 -18z m-1931 -762 c132 -407 261 -800 285 -873 24 -73 39 -130
34 -126 -14 9 -108 154 -169 262 -213 380 -352 829 -390 1262 -10 112 -12 245
-5 225 3 -5 113 -343 245 -750z m1902 720 c4 -20 2 -23 -8 -14 -7 6 -10 17 -7
25 7 20 10 18 15 -11z m-152 -200 c0 -1 -10 -5 -23 -7 -14 -3 -24 0 -24 7 0 7
10 10 24 7 13 -2 23 -6 23 -7z m-57 -31 c-7 -3 -9 -12 -6 -20 3 -8 1 -14 -5
-14 -8 0 -9 16 -3 38 1 1 7 2 14 1 9 0 9 -2 0 -5z m-153 -194 c-24 -15 -36
-11 -14 4 10 8 21 12 24 10 2 -3 -2 -9 -10 -14z m-75 -80 c3 -5 1 -10 -4 -10
-6 0 -11 5 -11 10 0 6 2 10 4 10 3 0 8 -4 11 -10z m-65 -94 c0 -2 -7 -7 -16
-10 -8 -3 -12 -2 -9 4 6 10 25 14 25 6z m-31 -110 c-3 -3 -11 5 -18 17 -13 21
-12 21 5 5 10 -10 16 -20 13 -22z m-69 -10 c0 -3 -4 -8 -10 -11 -5 -3 -10 -1
-10 4 0 6 5 11 10 11 6 0 10 -2 10 -4z m-90 -106 c0 -5 -5 -10 -11 -10 -5 0
-7 5 -4 10 3 6 8 10 11 10 2 0 4 -4 4 -10z m-60 -133 c12 -4 11 -6 -2 -6 -10
-1 -18 -7 -19 -13 -1 -7 -5 -2 -9 12 -7 21 -8 22 -9 5 -1 -16 -3 -17 -10 -6
-13 20 10 45 24 27 6 -7 17 -15 25 -19z m-64 -45 c1 -7 0 -8 -3 -2 -2 5 -9 10
-14 10 -6 0 -7 -4 -4 -10 3 -5 1 -10 -4 -10 -12 0 -14 13 -4 24 9 9 26 2 29
-12z m-19 -48 c-3 -3 -12 -4 -19 -1 -8 3 -5 6 6 6 11 1 17 -2 13 -5z m-62 -64
c-6 -17 -9 -19 -22 -9 -13 11 -13 14 3 26 22 16 28 11 19 -17z m-185 -124 c0
-2 -8 -10 -17 -17 -16 -13 -17 -12 -4 4 13 16 21 21 21 13z m5 -75 c3 -5 1
-12 -5 -16 -5 -3 -10 1 -10 9 0 18 6 21 15 7z m-45 -82 c0 7 5 9 10 6 6 -3 10
-13 10 -21 0 -12 -4 -12 -20 -4 -11 6 -25 8 -30 5 -6 -3 -7 1 -4 10 5 12 9 13
20 4 11 -9 14 -9 14 0z m-40 -29 c8 -5 11 -10 5 -10 -5 0 -17 5 -25 10 -8 5
-10 10 -5 10 6 0 17 -5 25 -10z m-29 -47 c10 -11 10 -14 2 -9 -8 4 -13 2 -13
-4 0 -6 -5 -8 -12 -4 -9 6 -9 9 0 12 7 2 10 8 6 13 -9 15 3 10 17 -8z m-174
-209 c-3 -3 -12 -4 -19 -1 -8 3 -5 6 6 6 11 1 17 -2 13 -5z"/>
<path d="M8325 11581 c-3 -5 -1 -12 5 -16 5 -3 10 1 10 9 0 18 -6 21 -15 7z"/>
<path d="M8065 11250 c-4 -6 -12 -9 -19 -7 -6 3 -12 -3 -12 -12 0 -21 25 -23
45 -4 9 10 10 18 3 25 -6 6 -12 6 -17 -2z"/>
<path d="M7430 10471 c5 -11 15 -23 21 -26 13 -9 8 27 -6 37 -18 14 -26 8 -15
-11z"/>
<path d="M7126 10068 c3 -4 11 -5 19 -1 21 7 19 12 -4 10 -11 0 -18 -5 -15 -9z"/>
<path d="M6761 9626 c-9 -11 -8 -15 5 -20 12 -5 15 -2 10 10 -5 12 -2 15 9 10
9 -3 13 -2 10 4 -9 14 -21 12 -34 -4z"/>
<path d="M6560 9366 c0 -2 7 -6 15 -10 8 -3 15 -1 15 4 0 6 -7 10 -15 10 -8 0
-15 -2 -15 -4z"/>
<path d="M6561 9334 c0 -11 3 -14 6 -6 3 7 2 16 -1 19 -3 4 -6 -2 -5 -13z"/>
<path d="M6324 9133 c10 -11 36 -12 36 -2 0 5 -10 9 -22 9 -12 0 -18 -3 -14
-7z"/>
<path d="M6325 9060 c-4 -6 -10 -8 -15 -5 -5 3 -11 1 -15 -5 -3 -5 3 -10 13
-10 11 0 22 7 26 15 6 17 0 20 -9 5z"/>
<path d="M5933 8605 c0 -8 4 -12 9 -9 5 3 6 10 3 15 -9 13 -12 11 -12 -6z"/>
<path d="M5878 8513 c7 -3 16 -2 19 1 4 3 -2 6 -13 5 -11 0 -14 -3 -6 -6z"/>
<path d="M5745 8377 c-5 -7 -11 -19 -13 -29 -2 -12 3 -15 18 -11 11 3 20 12
20 19 0 8 0 17 1 21 1 13 -16 13 -26 0z"/>
<path d="M5586 8205 c-3 -9 -2 -13 4 -10 14 9 12 -9 -2 -23 -8 -8 -9 -12 -1
-12 6 0 13 -6 16 -12 2 -7 2 -2 0 12 -3 24 -3 24 12 6 21 -27 19 -13 -4 24
-15 25 -20 28 -25 15z"/>
<path d="M4915 7300 c4 -6 11 -8 16 -5 14 9 11 15 -7 15 -8 0 -12 -5 -9 -10z"/>
<path d="M18515 11394 c-203 -31 -371 -85 -556 -180 -355 -183 -591 -453 -709
-812 -50 -156 -65 -250 -64 -422 1 -132 5 -169 26 -251 57 -214 141 -362 288
-509 58 -58 121 -114 142 -124 l36 -20 54 49 c175 159 430 266 858 360 63 14
136 32 161 40 l46 16 0 67 c-1 79 27 151 67 177 20 13 41 16 88 13 53 -4 65
-9 89 -36 73 -81 33 -239 -82 -322 -57 -41 -122 -64 -359 -125 -444 -116 -605
-187 -752 -335 -76 -77 -93 -101 -142 -201 -79 -162 -108 -281 -109 -439 -1
-142 19 -233 78 -355 l33 -69 -54 -58 c-137 -149 -225 -342 -261 -573 -45
-295 59 -602 281 -834 128 -133 260 -209 445 -258 79 -21 120 -26 236 -27 155
-1 233 13 361 66 l71 29 7 92 c9 116 39 273 70 365 75 218 232 423 423 550 64
42 66 56 28 187 -30 102 -89 226 -150 310 -56 78 -175 192 -253 240 -34 21
-62 44 -62 52 0 23 28 70 45 77 39 15 104 5 163 -25 67 -33 207 -158 242 -215
12 -19 30 -34 40 -34 37 0 230 73 369 141 240 116 391 217 562 377 l76 72 6
162 c13 381 128 658 379 912 l108 108 0 87 c0 318 -93 619 -273 886 -85 125
-273 311 -409 403 -291 197 -668 333 -1078 388 -133 17 -445 17 -565 -2z"/>
<path d="M14355 11059 c-76 -4 -171 -10 -210 -14 l-70 -6 48 -52 c149 -162
239 -372 268 -626 19 -168 -8 -373 -77 -580 -84 -254 -269 -527 -521 -772
-112 -109 -305 -263 -364 -292 l-28 -13 56 -48 c31 -26 274 -259 539 -517 372
-362 486 -478 495 -506 33 -101 -51 -510 -147 -712 -81 -172 -202 -328 -320
-413 -24 -17 -44 -35 -44 -39 0 -9 79 -27 175 -39 39 -5 653 -10 1402 -10
l1331 0 35 53 c123 187 186 444 187 764 0 263 -35 426 -133 623 l-62 125 -550
3 c-772 4 -1012 -11 -1261 -83 l-89 -26 -22 26 c-42 48 -21 119 43 150 60 28
252 72 374 86 70 7 343 14 699 18 l584 6 28 55 c58 111 92 250 109 446 22 249
-16 493 -110 711 l-22 53 -822 2 -821 3 0 53 c1 43 6 57 28 80 l27 27 778 5
c767 5 778 6 834 27 134 51 220 141 281 293 29 75 42 140 57 295 23 233 -32
530 -142 767 l-41 88 -1191 -2 c-655 0 -1254 -4 -1331 -9z"/>
<path d="M21518 9785 c-382 -62 -768 -348 -918 -679 -114 -252 -143 -556 -75
-791 l14 -50 113 -1 c220 -2 453 -81 793 -269 83 -45 168 -90 190 -99 38 -16
41 -16 50 1 6 10 33 41 60 70 80 82 156 83 216 0 33 -45 38 -100 14 -146 -25
-49 -101 -108 -156 -121 -98 -24 -165 -2 -454 145 -223 114 -372 175 -515 212
-235 61 -466 -2 -696 -189 -150 -121 -257 -307 -289 -500 -6 -36 -6 -36 -68
-43 -227 -26 -474 -164 -634 -355 -76 -91 -166 -263 -193 -373 -101 -406 0
-785 281 -1052 126 -119 253 -190 425 -236 64 -18 107 -22 234 -22 140 -1 163
2 243 26 387 119 660 456 707 873 15 139 2 267 -42 419 l-20 69 22 18 c12 10
36 18 53 18 41 0 99 -62 126 -135 31 -82 54 -229 48 -307 l-4 -67 91 -40 c195
-84 447 -149 666 -172 214 -21 511 11 706 76 480 160 915 594 1073 1072 58
176 76 296 76 513 0 209 -8 274 -55 456 -64 242 -168 465 -336 721 -347 526
-767 839 -1269 944 -131 27 -357 34 -477 14z"/>
</g>
</svg>
